<?xml version="1.0" encoding="UTF-8" standalone="no"?>
<!DOCTYPE svg PUBLIC "-//W3C//DTD SVG 1.1//EN" "http://www.w3.org/Graphics/SVG/1.1/DTD/svg11.dtd">
<svg width="100%" height="100%" viewBox="0 0 841 221" version="1.1" xmlns="http://www.w3.org/2000/svg" xmlns:xlink="http://www.w3.org/1999/xlink" xml:space="preserve" xmlns:serif="http://www.serif.com/" style="fill-rule:evenodd;clip-rule:evenodd;stroke-linejoin:round;stroke-miterlimit:2;">
    <g id="Artboard1" transform="matrix(0.840574,0,0,0.220037,0,0)">
        <rect x="0" y="0" width="1000" height="1000" style="fill:none;"/>
        <clipPath id="_clip1">
            <rect x="0" y="0" width="1000" height="1000"/>
        </clipPath>
        <g clip-path="url(#_clip1)">
            <g transform="matrix(3.18423,0,0,12.1642,-347.294,-4740.13)">
                <g transform="matrix(50,0,0,50,107.667,446.366)">
                    <path d="M0.383,-0.708L0.383,-0.688C0.36,-0.687 0.343,-0.685 0.332,-0.681C0.32,-0.676 0.312,-0.668 0.308,-0.657C0.304,-0.645 0.302,-0.627 0.302,-0.602L0.302,-0.086C0.302,-0.068 0.303,-0.055 0.306,-0.046C0.309,-0.037 0.314,-0.031 0.321,-0.028C0.328,-0.025 0.339,-0.023 0.353,-0.023L0.386,-0.023C0.403,-0.023 0.422,-0.03 0.442,-0.043C0.462,-0.056 0.482,-0.075 0.5,-0.098C0.52,-0.121 0.536,-0.148 0.55,-0.178C0.564,-0.207 0.574,-0.238 0.58,-0.27L0.603,-0.27C0.601,-0.246 0.6,-0.215 0.6,-0.178C0.6,-0.161 0.6,-0.136 0.601,-0.102C0.602,-0.07 0.604,-0.035 0.607,-0C0.573,-0.001 0.535,-0.002 0.492,-0.003C0.449,-0.003 0.411,-0.003 0.378,-0.003L0.31,-0.003C0.282,-0.003 0.252,-0.003 0.22,-0.003C0.187,-0.002 0.155,-0.002 0.122,-0.002C0.089,-0.001 0.057,-0.001 0.028,-0L0.028,-0.02C0.049,-0.021 0.064,-0.024 0.074,-0.028C0.084,-0.032 0.091,-0.04 0.094,-0.052C0.097,-0.064 0.099,-0.082 0.099,-0.106L0.099,-0.602C0.099,-0.627 0.097,-0.645 0.094,-0.657C0.091,-0.668 0.084,-0.676 0.074,-0.681C0.063,-0.685 0.048,-0.687 0.028,-0.688L0.028,-0.708C0.047,-0.707 0.073,-0.707 0.105,-0.706C0.136,-0.705 0.17,-0.705 0.206,-0.705C0.239,-0.705 0.272,-0.705 0.304,-0.706C0.336,-0.707 0.362,-0.707 0.383,-0.708Z" style="fill:rgb(9,29,54);fill-rule:nonzero;"/>
                </g>
                <g transform="matrix(50,0,0,50,137.467,446.366)">
                    <path d="M0.288,-0.533C0.347,-0.533 0.393,-0.516 0.427,-0.482C0.46,-0.447 0.477,-0.39 0.477,-0.309L0.164,-0.309L0.162,-0.328L0.331,-0.328C0.332,-0.361 0.33,-0.391 0.327,-0.419C0.324,-0.446 0.318,-0.468 0.311,-0.485C0.304,-0.502 0.294,-0.51 0.281,-0.51C0.263,-0.51 0.248,-0.496 0.237,-0.468C0.226,-0.439 0.218,-0.391 0.215,-0.322L0.219,-0.314C0.218,-0.307 0.218,-0.301 0.218,-0.294L0.218,-0.273C0.218,-0.226 0.224,-0.19 0.235,-0.164C0.247,-0.138 0.262,-0.12 0.28,-0.11C0.297,-0.1 0.315,-0.095 0.333,-0.095C0.342,-0.095 0.354,-0.096 0.367,-0.099C0.38,-0.102 0.394,-0.108 0.409,-0.117C0.424,-0.127 0.439,-0.142 0.454,-0.162L0.471,-0.156C0.463,-0.129 0.45,-0.103 0.433,-0.077C0.415,-0.05 0.392,-0.029 0.364,-0.012C0.336,0.005 0.302,0.014 0.262,0.014C0.219,0.014 0.181,0.005 0.146,-0.012C0.111,-0.029 0.083,-0.058 0.062,-0.098C0.041,-0.138 0.031,-0.192 0.031,-0.259C0.031,-0.323 0.042,-0.375 0.065,-0.416C0.088,-0.456 0.118,-0.486 0.158,-0.504C0.197,-0.524 0.24,-0.533 0.288,-0.533Z" style="fill:rgb(9,29,54);fill-rule:nonzero;"/>
                </g>
                <g transform="matrix(50,0,0,50,161.117,446.366)">
                    <path d="M0.221,0.188C0.176,0.188 0.137,0.184 0.103,0.177C0.07,0.17 0.045,0.16 0.027,0.147C0.009,0.134 0,0.119 0,0.1C0,0.081 0.009,0.064 0.028,0.047C0.047,0.031 0.076,0.018 0.117,0.009L0.127,0.025C0.116,0.038 0.109,0.049 0.106,0.059C0.102,0.07 0.1,0.08 0.1,0.089C0.1,0.115 0.112,0.135 0.136,0.149C0.159,0.164 0.192,0.171 0.235,0.171C0.265,0.171 0.29,0.167 0.311,0.158C0.331,0.15 0.346,0.139 0.357,0.124C0.367,0.109 0.372,0.093 0.372,0.074C0.372,0.055 0.365,0.039 0.351,0.026C0.337,0.013 0.309,0.006 0.266,0.006L0.212,0.006C0.181,0.006 0.156,0.002 0.135,-0.006C0.114,-0.014 0.099,-0.025 0.088,-0.04C0.077,-0.054 0.072,-0.071 0.072,-0.09C0.072,-0.121 0.084,-0.148 0.109,-0.169C0.134,-0.19 0.165,-0.209 0.204,-0.226L0.213,-0.218C0.206,-0.213 0.199,-0.208 0.192,-0.201C0.185,-0.194 0.181,-0.185 0.181,-0.172C0.181,-0.151 0.193,-0.14 0.217,-0.14L0.314,-0.14C0.357,-0.14 0.395,-0.135 0.428,-0.126C0.46,-0.117 0.485,-0.102 0.503,-0.081C0.522,-0.059 0.531,-0.032 0.531,0.002C0.531,0.035 0.52,0.066 0.499,0.094C0.477,0.123 0.443,0.145 0.398,0.162C0.353,0.179 0.294,0.188 0.221,0.188ZM0.235,-0.213C0.194,-0.213 0.157,-0.219 0.125,-0.23C0.092,-0.241 0.067,-0.259 0.048,-0.282C0.029,-0.306 0.02,-0.336 0.02,-0.373C0.02,-0.41 0.029,-0.44 0.048,-0.464C0.067,-0.487 0.092,-0.505 0.125,-0.516C0.157,-0.527 0.194,-0.533 0.235,-0.533C0.276,-0.533 0.313,-0.527 0.345,-0.516C0.378,-0.505 0.403,-0.487 0.422,-0.464C0.441,-0.44 0.45,-0.41 0.45,-0.373C0.45,-0.336 0.441,-0.306 0.422,-0.282C0.403,-0.259 0.378,-0.241 0.345,-0.23C0.313,-0.219 0.276,-0.213 0.235,-0.213ZM0.235,-0.231C0.248,-0.231 0.258,-0.241 0.265,-0.262C0.272,-0.283 0.276,-0.32 0.276,-0.373C0.276,-0.426 0.272,-0.463 0.265,-0.484C0.258,-0.505 0.248,-0.515 0.235,-0.515C0.222,-0.515 0.212,-0.505 0.205,-0.484C0.198,-0.463 0.194,-0.426 0.194,-0.373C0.194,-0.32 0.198,-0.283 0.205,-0.262C0.212,-0.241 0.222,-0.231 0.235,-0.231ZM0.398,-0.445L0.377,-0.452C0.388,-0.48 0.404,-0.502 0.427,-0.52C0.449,-0.537 0.473,-0.545 0.5,-0.545C0.523,-0.545 0.541,-0.539 0.552,-0.526C0.563,-0.513 0.569,-0.498 0.569,-0.479C0.569,-0.46 0.564,-0.445 0.554,-0.434C0.543,-0.423 0.531,-0.418 0.516,-0.418C0.503,-0.418 0.492,-0.422 0.482,-0.431C0.471,-0.44 0.465,-0.453 0.464,-0.47C0.463,-0.487 0.469,-0.509 0.483,-0.536L0.487,-0.529C0.464,-0.52 0.445,-0.51 0.432,-0.497C0.419,-0.484 0.407,-0.467 0.398,-0.445Z" style="fill:rgb(9,29,54);fill-rule:nonzero;"/>
                </g>
                <g transform="matrix(50,0,0,50,187.617,446.366)">
                    <path d="M0.156,0.007C0.125,0.007 0.099,0.001 0.079,-0.011C0.059,-0.023 0.045,-0.039 0.035,-0.058C0.027,-0.077 0.022,-0.098 0.022,-0.119C0.022,-0.147 0.028,-0.17 0.041,-0.188C0.054,-0.205 0.07,-0.22 0.091,-0.231C0.111,-0.242 0.132,-0.251 0.155,-0.258C0.178,-0.265 0.199,-0.273 0.22,-0.28C0.24,-0.286 0.256,-0.295 0.269,-0.305C0.282,-0.314 0.288,-0.327 0.288,-0.342L0.288,-0.431C0.288,-0.442 0.286,-0.453 0.282,-0.466C0.279,-0.479 0.272,-0.49 0.262,-0.499C0.252,-0.508 0.237,-0.513 0.217,-0.513C0.206,-0.513 0.196,-0.511 0.187,-0.508C0.177,-0.505 0.168,-0.501 0.161,-0.496C0.184,-0.487 0.201,-0.475 0.212,-0.46C0.223,-0.444 0.228,-0.427 0.228,-0.408C0.228,-0.381 0.219,-0.36 0.2,-0.345C0.181,-0.33 0.159,-0.322 0.134,-0.322C0.107,-0.322 0.087,-0.33 0.072,-0.347C0.057,-0.364 0.05,-0.384 0.05,-0.409C0.05,-0.43 0.055,-0.447 0.066,-0.462C0.076,-0.476 0.091,-0.489 0.112,-0.501C0.132,-0.512 0.156,-0.521 0.184,-0.526C0.212,-0.531 0.241,-0.533 0.272,-0.533C0.305,-0.533 0.335,-0.53 0.363,-0.524C0.391,-0.517 0.415,-0.504 0.435,-0.483C0.449,-0.468 0.458,-0.45 0.462,-0.428C0.466,-0.406 0.468,-0.378 0.468,-0.343L0.468,-0.075C0.468,-0.058 0.469,-0.047 0.471,-0.041C0.474,-0.035 0.478,-0.032 0.484,-0.032C0.489,-0.032 0.495,-0.034 0.5,-0.037C0.504,-0.04 0.509,-0.044 0.514,-0.047L0.524,-0.03C0.509,-0.017 0.491,-0.008 0.469,-0.002C0.448,0.004 0.425,0.007 0.401,0.007C0.372,0.007 0.35,0.003 0.335,-0.004C0.319,-0.011 0.308,-0.02 0.302,-0.032C0.295,-0.043 0.292,-0.056 0.291,-0.069C0.277,-0.047 0.26,-0.029 0.238,-0.015C0.218,-0 0.19,0.007 0.156,0.007ZM0.251,-0.073C0.258,-0.073 0.265,-0.074 0.271,-0.077C0.276,-0.079 0.282,-0.083 0.288,-0.09L0.288,-0.301C0.283,-0.292 0.277,-0.284 0.27,-0.276C0.262,-0.267 0.254,-0.259 0.246,-0.25C0.238,-0.241 0.231,-0.232 0.224,-0.222C0.217,-0.212 0.211,-0.201 0.206,-0.188C0.202,-0.174 0.2,-0.159 0.2,-0.142C0.2,-0.117 0.205,-0.099 0.215,-0.089C0.224,-0.078 0.236,-0.073 0.251,-0.073Z" style="fill:rgb(9,29,54);fill-rule:nonzero;"/>
                </g>
                <g transform="matrix(50,0,0,50,212.667,446.366)">
                    <path d="M0.254,-0.782L0.254,-0.093C0.254,-0.065 0.258,-0.046 0.267,-0.036C0.275,-0.026 0.289,-0.021 0.31,-0.021L0.31,-0C0.297,-0.001 0.277,-0.002 0.25,-0.003C0.223,-0.004 0.196,-0.004 0.168,-0.004C0.14,-0.004 0.112,-0.004 0.083,-0.003C0.054,-0.002 0.033,-0.001 0.018,-0L0.018,-0.021C0.039,-0.021 0.053,-0.026 0.062,-0.036C0.07,-0.046 0.074,-0.065 0.074,-0.093L0.074,-0.662C0.074,-0.692 0.07,-0.714 0.062,-0.729C0.054,-0.743 0.039,-0.75 0.018,-0.75L0.018,-0.771C0.039,-0.769 0.06,-0.768 0.08,-0.768C0.113,-0.768 0.145,-0.769 0.173,-0.772C0.203,-0.774 0.229,-0.777 0.254,-0.782Z" style="fill:rgb(9,29,54);fill-rule:nonzero;"/>
                </g>
                <g transform="matrix(50,0,0,50,237.217,446.366)">
                    <path d="M0.361,-0.708C0.501,-0.708 0.605,-0.678 0.673,-0.619C0.74,-0.559 0.774,-0.473 0.774,-0.362C0.774,-0.289 0.757,-0.226 0.724,-0.172C0.691,-0.117 0.643,-0.075 0.58,-0.045C0.517,-0.015 0.441,-0 0.352,-0C0.341,-0 0.327,-0 0.31,-0.001C0.292,-0.002 0.273,-0.002 0.254,-0.003C0.235,-0.003 0.217,-0.003 0.202,-0.003C0.169,-0.003 0.136,-0.003 0.105,-0.003C0.073,-0.002 0.047,-0.001 0.028,-0L0.028,-0.02C0.049,-0.021 0.064,-0.024 0.074,-0.028C0.084,-0.032 0.091,-0.04 0.094,-0.052C0.097,-0.064 0.099,-0.082 0.099,-0.106L0.099,-0.602C0.099,-0.627 0.097,-0.645 0.094,-0.657C0.091,-0.668 0.084,-0.676 0.074,-0.681C0.063,-0.685 0.048,-0.687 0.028,-0.688L0.028,-0.708C0.047,-0.707 0.073,-0.707 0.105,-0.706C0.136,-0.705 0.168,-0.704 0.2,-0.705C0.225,-0.706 0.253,-0.706 0.283,-0.707C0.315,-0.708 0.34,-0.708 0.361,-0.708ZM0.376,-0.69C0.345,-0.69 0.325,-0.684 0.316,-0.673C0.307,-0.662 0.302,-0.639 0.302,-0.604L0.302,-0.104C0.302,-0.069 0.307,-0.046 0.317,-0.035C0.326,-0.024 0.346,-0.018 0.377,-0.018C0.422,-0.018 0.459,-0.031 0.486,-0.058C0.513,-0.084 0.533,-0.122 0.546,-0.173C0.558,-0.224 0.564,-0.285 0.564,-0.358C0.564,-0.433 0.558,-0.495 0.545,-0.544C0.532,-0.593 0.511,-0.629 0.484,-0.654C0.456,-0.678 0.42,-0.69 0.376,-0.69Z" style="fill:rgb(9,29,54);fill-rule:nonzero;"/>
                </g>
                <g transform="matrix(50,0,0,50,276.267,446.366)">
                    <path d="M0.288,-0.533C0.34,-0.533 0.385,-0.524 0.424,-0.506C0.462,-0.489 0.492,-0.46 0.513,-0.42C0.534,-0.38 0.545,-0.326 0.545,-0.259C0.545,-0.192 0.534,-0.138 0.513,-0.098C0.492,-0.058 0.462,-0.029 0.424,-0.012C0.385,0.005 0.34,0.014 0.288,0.014C0.237,0.014 0.192,0.005 0.153,-0.012C0.114,-0.029 0.084,-0.058 0.063,-0.098C0.042,-0.138 0.031,-0.192 0.031,-0.259C0.031,-0.326 0.042,-0.38 0.063,-0.42C0.084,-0.46 0.114,-0.489 0.153,-0.506C0.192,-0.524 0.237,-0.533 0.288,-0.533ZM0.288,-0.513C0.268,-0.513 0.251,-0.493 0.238,-0.453C0.225,-0.413 0.218,-0.348 0.218,-0.259C0.218,-0.17 0.225,-0.105 0.238,-0.066C0.251,-0.026 0.268,-0.006 0.288,-0.006C0.308,-0.006 0.325,-0.026 0.338,-0.066C0.351,-0.105 0.358,-0.17 0.358,-0.259C0.358,-0.348 0.351,-0.413 0.338,-0.453C0.325,-0.493 0.308,-0.513 0.288,-0.513Z" style="fill:rgb(9,29,54);fill-rule:nonzero;"/>
                </g>
                <g transform="matrix(50,0,0,50,302.767,446.366)">
                    <path d="M0.521,-0.519L0.521,-0.498C0.508,-0.493 0.496,-0.484 0.485,-0.47C0.473,-0.457 0.461,-0.434 0.45,-0.401L0.315,-0C0.299,-0.001 0.283,-0.002 0.267,-0.002C0.25,-0.002 0.234,-0.001 0.218,-0L0.044,-0.442C0.034,-0.467 0.024,-0.483 0.013,-0.489C0.002,-0.495 -0.007,-0.498 -0.014,-0.498L-0.014,-0.519C0.013,-0.517 0.04,-0.516 0.069,-0.515C0.098,-0.514 0.129,-0.513 0.164,-0.513C0.185,-0.513 0.206,-0.514 0.23,-0.515C0.253,-0.516 0.274,-0.518 0.294,-0.519L0.294,-0.498C0.282,-0.498 0.271,-0.498 0.262,-0.497C0.252,-0.496 0.245,-0.493 0.241,-0.488C0.236,-0.483 0.235,-0.473 0.238,-0.46L0.35,-0.148L0.337,-0.128L0.393,-0.295C0.408,-0.34 0.415,-0.378 0.412,-0.407C0.41,-0.436 0.402,-0.459 0.389,-0.473C0.376,-0.489 0.359,-0.497 0.339,-0.498L0.339,-0.519C0.348,-0.518 0.36,-0.518 0.373,-0.517C0.386,-0.516 0.4,-0.516 0.412,-0.516C0.426,-0.515 0.436,-0.515 0.444,-0.515C0.456,-0.515 0.47,-0.515 0.486,-0.516C0.502,-0.517 0.514,-0.518 0.521,-0.519Z" style="fill:rgb(9,29,54);fill-rule:nonzero;"/>
                </g>
                <g transform="matrix(50,0,0,50,326.317,446.366)">
                    <path d="M0.288,-0.533C0.347,-0.533 0.393,-0.516 0.427,-0.482C0.46,-0.447 0.477,-0.39 0.477,-0.309L0.164,-0.309L0.162,-0.328L0.331,-0.328C0.332,-0.361 0.33,-0.391 0.327,-0.419C0.324,-0.446 0.318,-0.468 0.311,-0.485C0.304,-0.502 0.294,-0.51 0.281,-0.51C0.263,-0.51 0.248,-0.496 0.237,-0.468C0.226,-0.439 0.218,-0.391 0.215,-0.322L0.219,-0.314C0.218,-0.307 0.218,-0.301 0.218,-0.294L0.218,-0.273C0.218,-0.226 0.224,-0.19 0.235,-0.164C0.247,-0.138 0.262,-0.12 0.28,-0.11C0.297,-0.1 0.315,-0.095 0.333,-0.095C0.342,-0.095 0.354,-0.096 0.367,-0.099C0.38,-0.102 0.394,-0.108 0.409,-0.117C0.424,-0.127 0.439,-0.142 0.454,-0.162L0.471,-0.156C0.463,-0.129 0.45,-0.103 0.433,-0.077C0.415,-0.05 0.392,-0.029 0.364,-0.012C0.336,0.005 0.302,0.014 0.262,0.014C0.219,0.014 0.181,0.005 0.146,-0.012C0.111,-0.029 0.083,-0.058 0.062,-0.098C0.041,-0.138 0.031,-0.192 0.031,-0.259C0.031,-0.323 0.042,-0.375 0.065,-0.416C0.088,-0.456 0.118,-0.486 0.158,-0.504C0.197,-0.524 0.24,-0.533 0.288,-0.533Z" style="fill:rgb(9,29,54);fill-rule:nonzero;"/>
                </g>
            </g>
            <g transform="matrix(0.0887822,0.0474048,-0.0124092,0.339161,792.236,42.5962)">
                <path d="M2074.53,925.728C2030.24,1175.62 1880.74,1314.43 1570.96,1336.42C1903.73,1791.32 2297.95,1843.45 2339.64,1848.42C2327.14,1860.59 2273.85,1883.95 2211.9,1880.85C2293.2,1977.34 2458.55,2024.9 2589.55,2063.87C2502.64,2085.5 2319.57,2133.89 2144.15,1970.23C2223.84,2072.99 2205.54,2245.2 2173.57,2299.1C2087.91,2089.33 2001.79,1975.04 1900.39,1932.02C1987.91,2038.44 2065.28,2278.9 2016.81,2451C1911.91,2152.19 1829.71,2027.93 1690.44,1946.75C1764.4,2081.6 1772.16,2177.35 1749.41,2257.68C1500.62,1866.6 1355.43,1828.3 1198.99,1824.97C688.74,1814.11 447.802,1578.8 382.797,1054.77C364.104,904.08 323.388,771.679 212.278,662.416C146.073,597.311 41.036,621.318 0,665.366C5.618,605.019 36.377,546.65 120.796,490.191C175.77,344.314 307.327,304.931 446.974,358.124C523.834,387.4 576.333,437.705 621.791,504.931C710.77,636.51 823.461,768.84 963.851,847.116C1165.26,392.72 1561.9,768.686 1996.34,0.42C2078.95,358.146 2068.55,484.855 1831.8,737.2C1924.82,712.115 2022.86,648.737 2100.34,581.807C2068.28,836.503 1894.23,971.69 1660.85,1124.09C1834.43,1099.96 1983.69,993.57 2074.53,925.728Z" style="fill:rgb(0,111,255);"/>
            </g>
        </g>
    </g>
</svg>
